{"title":"A Bugs Life 1998 1080p x264 2Audio(Arabic, English) - alrmothe","uid":7752394,"size":4526754855,"categoryP":"video","categoryS":"hd___movies","magnet":"?xt=urn:btih:9512eff1994f56dc9ed79caf9412fb96f5fc7f2e&amp;dn=A+Bugs+Life+1998+1080p+x264+2Audio%28Arabic%2C+English%29+-+alrmothe&amp;tr=udp%3A%2F%2Ftracker.openbittorrent.com%3A80&amp;tr=udp%3A%2F%2Fopen.demonii.com%3A1337&amp;tr=udp%3A%2F%2Ftracker.coppersurfer.tk%3A6969&amp;tr=udp%3A%2F%2Fexodus.desync.com%3A6969","seeders":2,"leechers":0,"uploader":".alrmothe","files":32,"time":1350999636,"description":".\n\n\n[color=green]Movies : Animation : HD1080p :2Audio[/color]\n\nA Bugs Life 1998 1080p x264 2Audio(Arabic, English) - alrmothe\n\n\n\n\n[img]http://img696.imageshack.us/img696/6881/91592186.jpg[/img]\n\n\n\n\n\n[img]http://img219.imageshack.us/img219/462/imdbt.png[/img]\n[color=red]IMDB:[/color] &lt;a href=&quot;\nhttp://www.imdb.com/title/tt0120623/&quot; rel=&quot;nofollow&quot; target=&quot;_NEW&quot;&gt;\nhttp://www.imdb.com/title/tt0120623/&lt;/a&gt;\n[color=green]Genre:[/color] Animation | Adventure | Comedy\n[color=green]Source:[/color]Blu-ray Disc\n\nLanguage:Arabic, English\n[color=green]File size:[/color]4.20 GiB\n[color=green]Overall bit rate:[/color]6340 Kbps\n[color=green]Duration:[/color]1h 34mn\n \nEncoded / Released By:alrmothe\n\n\n\n[img]http://i.imgur.com/fXeWi.png[/img]\n\nVideo Information\nFormat :Matroska\nFormat : AVC\nFormat profile:&lt;a class=&quot;__cf_email__&quot; href=&quot;/cdn-cgi/l/email-protection&quot; data-cfemail=&quot;eda5848a85ada1d9c3dc&quot;&gt;[email&amp;#160;protected]&lt;/a&gt;&lt;script cf-hash='f9e31' type=&quot;text/javascript&quot;&gt;\n/* &lt;![CDATA[ */!function(){try{var t=&quot;currentScript&quot;in document?document.currentScript:function(){for(var t=document.getElementsByTagName(&quot;script&quot;),e=t.length;e--;)if(t[e].getAttribute(&quot;cf-hash&quot;))return t[e]}();if(t&amp;&amp;t.previousSibling){var e,r,n,i,c=t.previousSibling,a=c.getAttribute(&quot;data-cfemail&quot;);if(a){for(e=&quot;&quot;,r=parseInt(a.substr(0,2),16),n=2;a.length-n;n+=2)i=parseInt(a.substr(n,2),16)^r,e+=String.fromCharCode(i);e=document.createTextNode(e),c.parentNode.replaceChild(e,c)}}}catch(u){}}();/* ]]&gt; */&lt;/script&gt;\nVideo Bit rate:5060 Kbps\nFrame Rate: 23.976 fps\nBit depth : 8 bits\nScan type : Progressive\nBits/(Pixel*Frame):0.135\nStream size:3.27 GiB(78%)\n[color=green]Resolution:1920x816[/color]\n\n\nAudio Information:\nFormat : AC-3\nBit rate mode : Constant\nBit rate : 640 Kbps\nChannel(s) : 6 channels\nChannel positions:Front: L C R, Side:L R,LFE\nSampling rate : 48.0 KHz\nBit depth : 16 bits\nCompression mode : Lossy\nStream size:434 MiB(10%)\nLanguage:Arabic\n\nFormat : AC-3\nBit rate mode : Constant\nBit rate : 640 Kbps\nChannel(s) : 6 channels\nChannel positions:Front: L C R, Side:L R,LFE\nSampling rate : 48.0 KHz\nBit depth : 16 bits\nCompression mode : Lossy\nStream size:434 MiB(10%)\nLanguage:English\n\nSUB:Arabic,Danish,Vietnamese,English,Croatian,Portuguese,Malay,Spanish.srt\n\n\n\n\nScreenshots\n\n &lt;a href=&quot;\nhttp://img404.imageshack.us/img404/51/79401014.png&quot; rel=&quot;nofollow&quot; target=&quot;_NEW&quot;&gt;\nhttp://img404.imageshack.us/img404/51/79401014.png&lt;/a&gt;\n &lt;a href=&quot;\nhttp://img84.imageshack.us/img84/3119/18676405.png&quot; rel=&quot;nofollow&quot; target=&quot;_NEW&quot;&gt;\nhttp://img84.imageshack.us/img84/3119/18676405.png&lt;/a&gt;\n &lt;a href=&quot;\nhttp://img84.imageshack.us/img84/4996/83125554.png&quot; rel=&quot;nofollow&quot; target=&quot;_NEW&quot;&gt;\nhttp://img84.imageshack.us/img84/4996/83125554.png&lt;/a&gt;\n &lt;a href=&quot;\nhttp://img442.imageshack.us/img442/6194/85396325.png&quot; rel=&quot;nofollow&quot; target=&quot;_NEW&quot;&gt;\nhttp://img442.imageshack.us/img442/6194/85396325.png&lt;/a&gt;\n\n\n[img]http://img252.imageshack.us/img252/333/abugslife19981080px264a.png[/img]\n\n\n\n[code] &lt;a href=&quot;\nhttp://p2pdl.com:2710/announce&quot; rel=&quot;nofollow&quot; target=&quot;_NEW&quot;&gt;\nhttp://p2pdl.com:2710/announce&lt;/a&gt;\nudp://tracker.1337x.org:80/announce &lt;a href=&quot;\nhttp://exodus.desync.com/announce&quot; rel=&quot;nofollow&quot; target=&quot;_NEW&quot;&gt;\nhttp://exodus.desync.com/announce&lt;/a&gt; &lt;a href=&quot;\nhttp://121.14.98.151:9090/announce&quot; rel=&quot;nofollow&quot; target=&quot;_NEW&quot;&gt;\nhttp://121.14.98.151:9090/announce&lt;/a&gt; &lt;a href=&quot;\nhttp://tracker.ex.ua/announce&quot; rel=&quot;nofollow&quot; target=&quot;_NEW&quot;&gt;\nhttp://tracker.ex.ua/announce&lt;/a&gt; &lt;a href=&quot;\nhttp://tracker.torrentbay.to:6969/announce&quot; rel=&quot;nofollow&quot; target=&quot;_NEW&quot;&gt;\nhttp://tracker.torrentbay.to:6969/announce&lt;/a&gt;\nudp://tracker.istole.it:80/announce &lt;a href=&quot;\nhttp://94.228.192.98/announce&quot; rel=&quot;nofollow&quot; target=&quot;_NEW&quot;&gt;\nhttp://94.228.192.98/announce&lt;/a&gt;\n[/code]\n\n\n[img]http://torrent-stats.info/9caf/1376f77a8.png[/img]\n\n\n\nYou can play movie on PlayStation 3 Media Server\n\n\n\n\n\n\n\n\n\n\n\n\nTrailer\n\n\n\n\n.","torrent":{"xt":"urn:btih:9512eff1994f56dc9ed79caf9412fb96f5fc7f2e","amp;dn":"A+Bugs+Life+1998+1080p+x264+2Audio%28Arabic%2C+English%29+-+alrmothe","amp;tr":["udp%3A%2F%2Ftracker.openbittorrent.com%3A80","udp%3A%2F%2Fopen.demonii.com%3A1337","udp%3A%2F%2Ftracker.coppersurfer.tk%3A6969","udp%3A%2F%2Fexodus.desync.com%3A6969"],"infoHash":"9512eff1994f56dc9ed79caf9412fb96f5fc7f2e","infoHashBuffer":{"type":"Buffer","data":[149,18,239,241,153,79,86,220,158,215,156,175,148,18,251,150,245,252,127,46]},"announce":[],"urlList":[]}}